<?xml version="1.0" encoding="UTF-8" standalone="no"?>
<!DOCTYPE svg PUBLIC "-//W3C//DTD SVG 1.1//EN" "http://www.w3.org/Graphics/SVG/1.1/DTD/svg11.dtd">
<svg width="100%" height="100%" viewBox="0 0 238 238" version="1.1" xmlns="http://www.w3.org/2000/svg" xmlns:xlink="http://www.w3.org/1999/xlink" xml:space="preserve" xmlns:serif="http://www.serif.com/" style="fill-rule:evenodd;clip-rule:evenodd;stroke-linejoin:round;stroke-miterlimit:2;">
    <g transform="matrix(1,0,0,1,-9,-9)">
        <g>
            <g transform="matrix(0.929688,0,0,0.929688,9,9)">
                <path d="M256,51.483C256,23.069 232.931,0 204.517,0L51.483,0C23.069,0 0,23.069 0,51.483L0,204.517C0,232.931 23.069,256 51.483,256L204.517,256C232.931,256 256,232.931 256,204.517L256,51.483Z" style="fill:url(#_Linear1);"/>
            </g>
            <g transform="matrix(1.13548,0,0,1.08054,-19.0452,-7.39215)">
                <path d="M121.925,57.619C122.828,54.308 125.94,52 129.5,52C133.06,52 136.172,54.308 137.075,57.619L151.604,110.895C151.862,111.839 152.25,112.746 152.758,113.592C153.266,114.438 153.889,115.214 154.611,115.901L195.343,154.635C197.873,157.041 198.397,160.786 196.617,163.75C194.837,166.714 191.201,168.15 187.768,167.247L132.507,152.704C131.527,152.447 130.516,152.316 129.5,152.316C128.484,152.316 127.473,152.447 126.493,152.704L71.232,167.247C67.799,168.15 64.163,166.714 62.383,163.75C60.603,160.786 61.127,157.041 63.657,154.635L104.389,115.901C105.111,115.214 105.734,114.438 106.242,113.592C106.75,112.746 107.138,111.839 107.396,110.895L121.925,57.619Z" style="fill:white;"/>
            </g>
            <g transform="matrix(-1.13548,-0.000970258,0.000923307,-1.08054,274.897,263.518)">
                <path d="M121.925,57.619C122.828,54.308 125.94,52 129.5,52C133.06,52 136.172,54.308 137.075,57.619L151.604,110.895C151.862,111.839 152.25,112.746 152.758,113.592C153.266,114.438 153.889,115.214 154.611,115.901L195.343,154.635C197.873,157.041 198.397,160.786 196.617,163.75C194.837,166.714 191.201,168.15 187.768,167.247L132.507,152.704C131.527,152.447 130.516,152.316 129.5,152.316C128.484,152.316 127.473,152.447 126.493,152.704L71.232,167.247C67.799,168.15 64.163,166.714 62.383,163.75C60.603,160.786 61.127,157.041 63.657,154.635L104.389,115.901C105.111,115.214 105.734,114.438 106.242,113.592C106.75,112.746 107.138,111.839 107.396,110.895L121.925,57.619Z" style="fill:white;fill-opacity:0.5;"/>
            </g>
        </g>
    </g>
    <defs>
        <linearGradient id="_Linear1" x1="0" y1="0" x2="1" y2="0" gradientUnits="userSpaceOnUse" gradientTransform="matrix(1.07563,256,-256,1.07563,128,0)"><stop offset="0" style="stop-color:rgb(255,66,66);stop-opacity:1"/><stop offset="1" style="stop-color:rgb(220,0,245);stop-opacity:1"/></linearGradient>
    </defs>
</svg>
