<?xml version="1.0" encoding="UTF-8" standalone="no"?>
<!DOCTYPE svg PUBLIC "-//W3C//DTD SVG 1.1//EN" "http://www.w3.org/Graphics/SVG/1.1/DTD/svg11.dtd">
<svg width="100%" height="100%" viewBox="0 0 48 48" version="1.1" xmlns="http://www.w3.org/2000/svg" xmlns:xlink="http://www.w3.org/1999/xlink" xml:space="preserve" xmlns:serif="http://www.serif.com/" style="fill-rule:evenodd;clip-rule:evenodd;stroke-linejoin:round;stroke-miterlimit:2;">
    <g transform="matrix(0.09375,0,0,0.09375,0,0)">
        <path d="M512,72.443C512,32.461 479.539,0 439.557,0L72.443,0C32.461,0 0,32.461 0,72.443L0,439.557C0,479.539 32.461,512 72.443,512L439.557,512C479.539,512 512,479.539 512,439.557L512,72.443Z" style="fill:url(#_Linear1);"/>
        <g transform="matrix(1.31341,0,0,1.31341,-262.179,-67.4687)">
            <g transform="matrix(273.625,0,0,273.625,558.383,373.491)">
            </g>
            <text x="399.407px" y="373.491px" style="font-family:'HannotateSC-W5', 'Hannotate SC', cursive;font-size:273.625px;fill:white;fill-opacity:0.5;">P</text>
        </g>
        <g transform="matrix(1.21135,0,0,1.21135,-25.7896,-50.7211)">
            <text x="65px" y="326px" style="font-family:'HanziPenSC-W3', 'HanziPen SC', cursive;font-size:273.625px;fill:white;">M</text>
        </g>
    </g>
    <defs>
        <linearGradient id="_Linear1" x1="0" y1="0" x2="1" y2="0" gradientUnits="userSpaceOnUse" gradientTransform="matrix(5.68434e-14,512,-512,5.68434e-14,256,0)"><stop offset="0" style="stop-color:rgb(103,38,255);stop-opacity:1"/><stop offset="1" style="stop-color:rgb(186,102,255);stop-opacity:1"/></linearGradient>
    </defs>
</svg>
